<svg xmlns="http://www.w3.org/2000/svg" viewBox="0 0 356.09 76.56" role="img" aria-label="Sofilx"><g transform="translate(-124.595 -7.302) scale(0.91279)"><path fill="#ffffff" fill-rule="evenodd" d="M175.50,91.72C175.19,91.67 174.29,91.57 173.50,91.51C172.71,91.45 171.91,91.34 171.72,91.27C171.52,91.19 170.99,91.07 170.53,91.00C170.07,90.93 169.27,90.73 168.75,90.56C168.23,90.39 167.42,90.17 166.94,90.06C166.46,89.95 165.87,89.75 165.64,89.61C165.40,89.47 164.73,89.25 164.14,89.11C163.48,88.95 162.79,88.68 162.37,88.43C161.99,88.19 161.60,88.00 161.50,88.00C161.40,88.00 160.95,87.77 160.50,87.50C160.05,87.23 159.60,87.00 159.49,87.00C159.39,87.00 158.99,86.80 158.62,86.56C158.24,86.32 157.72,86.07 157.46,85.99C157.16,85.91 156.67,85.57 156.19,85.13C155.38,84.37 154.94,84.10 154.33,83.95C154.13,83.90 153.65,83.56 153.27,83.20C152.55,82.53 151.42,81.64 150.72,81.19C150.12,80.81 147.03,77.76 146.59,77.12C146.38,76.82 145.95,76.28 145.64,75.94C144.81,75.04 142.41,71.51 142.07,70.70C141.99,70.49 141.77,70.14 141.60,69.94C141.30,69.58 140.98,69.00 140.20,67.38C140.02,67.00 139.78,66.52 139.67,66.31C139.19,65.44 139.13,65.27 139.00,64.46C138.92,63.97 138.71,63.33 138.51,62.96C138.29,62.56 138.07,61.88 137.94,61.21C137.83,60.60 137.63,59.83 137.49,59.48C137.36,59.14 137.25,58.65 137.25,58.39C137.25,58.12 137.16,57.41 137.04,56.80C136.93,56.18 136.83,54.91 136.81,53.94C136.80,52.97 136.72,52.03 136.64,51.84C136.45,51.36 136.45,47.64 136.64,47.16C136.72,46.97 136.80,46.31 136.82,45.69C136.89,43.16 137.11,40.67 137.30,40.14C137.41,39.84 137.50,39.36 137.50,39.07C137.50,38.78 137.59,38.26 137.69,37.93C137.79,37.59 137.93,36.92 137.99,36.44C138.10,35.64 138.31,35.25 138.63,35.25C138.96,35.25 140.39,36.48 142.41,38.48C144.20,40.26 144.79,40.92 144.90,41.28C145.04,41.76 144.87,44.11 144.61,45.12C144.43,45.86 144.48,51.33 144.69,52.18C144.79,52.60 144.83,53.16 144.79,53.45C144.70,54.12 145.04,56.09 145.51,57.56C145.70,58.18 145.92,59.07 146.00,59.54C146.08,60.04 146.28,60.66 146.50,61.04C146.71,61.43 146.92,62.04 147.00,62.56C147.09,63.10 147.27,63.65 147.48,64.00C147.67,64.31 147.93,64.81 148.05,65.12C148.17,65.42 148.37,65.82 148.50,66.00C148.63,66.18 148.86,66.63 149.00,67.00C149.14,67.37 149.37,67.82 149.51,68.01C149.64,68.20 149.84,68.60 149.95,68.90C150.05,69.19 150.38,69.69 150.68,70.00C150.97,70.31 151.53,71.04 151.91,71.62C152.70,72.84 156.48,76.66 157.32,77.10C157.59,77.24 158.37,77.73 159.05,78.18C159.73,78.63 160.38,79.00 160.49,79.00C160.60,79.00 161.05,79.23 161.50,79.50C161.95,79.77 162.40,80.00 162.51,80.00C162.61,80.00 162.98,80.18 163.32,80.39C164.07,80.87 165.58,81.50 165.98,81.50C166.14,81.50 166.81,81.72 167.49,82.00C168.48,82.41 168.85,82.50 169.53,82.50C170.08,82.50 170.53,82.58 170.89,82.75C171.39,82.97 171.72,82.99 174.44,83.00C177.60,83.00 179.83,82.80 180.65,82.45C180.91,82.34 181.33,82.25 181.59,82.25C181.86,82.25 182.38,82.17 182.75,82.08C183.13,81.98 183.71,81.87 184.04,81.83C184.37,81.79 184.89,81.61 185.19,81.43C185.52,81.24 186.08,81.06 186.59,80.99C187.14,80.91 187.61,80.75 187.93,80.54C188.20,80.36 188.85,80.06 189.37,79.87C190.89,79.31 192.02,78.81 192.68,78.39C193.02,78.18 193.37,78.00 193.46,78.00C193.54,78.00 193.80,77.84 194.03,77.64C194.25,77.44 194.82,77.10 195.29,76.88C195.75,76.66 196.46,76.18 196.85,75.83C197.24,75.47 197.84,74.97 198.19,74.72C199.04,74.11 201.72,71.36 201.88,70.93C201.95,70.74 201.97,70.41 201.93,70.20C201.87,69.90 199.14,67.10 189.83,57.77C183.22,51.15 177.53,45.53 177.19,45.29C176.38,44.71 161.42,29.80 161.17,29.33C160.94,28.91 161.03,28.43 161.37,28.25C161.50,28.18 162.02,28.07 162.52,28.00C163.12,27.91 163.60,27.76 163.91,27.56C164.16,27.39 164.67,27.13 165.02,26.99C165.38,26.85 165.81,26.64 165.99,26.51C166.41,26.22 167.07,26.00 167.51,26.00C167.70,26.00 168.51,25.80 169.29,25.57C170.08,25.33 171.11,25.08 171.58,25.01C172.05,24.94 172.86,24.82 173.38,24.74C173.89,24.67 174.69,24.56 175.16,24.50C175.62,24.44 176.06,24.35 176.13,24.31C176.35,24.17 180.65,24.23 181.12,24.37C181.36,24.44 181.99,24.50 182.51,24.50C183.03,24.50 183.74,24.58 184.07,24.69C184.41,24.79 185.05,24.93 185.50,25.00C186.58,25.17 188.16,25.69 188.97,26.14C189.33,26.34 189.77,26.50 189.94,26.50C190.44,26.50 190.92,26.81 191.51,27.52C192.01,28.11 193.31,29.19 194.28,29.81C194.93,30.23 196.50,31.77 197.02,32.50C197.94,33.81 198.59,34.63 199.23,35.31C199.59,35.68 199.88,36.07 199.88,36.17C199.88,36.27 200.08,36.62 200.33,36.95C200.58,37.28 200.89,37.79 201.03,38.09C201.16,38.39 201.43,38.90 201.64,39.24C201.91,39.66 202.05,40.11 202.14,40.76C202.23,41.43 202.37,41.85 202.64,42.28C202.91,42.69 203.06,43.13 203.14,43.75C203.21,44.24 203.38,44.83 203.51,45.06C203.84,45.60 203.99,47.11 204.00,49.63C204.00,51.68 203.95,51.88 203.43,51.88C203.11,51.88 202.63,51.46 200.20,49.12C199.23,48.18 198.18,47.24 197.88,47.03C196.77,46.28 195.46,44.68 195.03,43.56C194.66,42.61 192.39,39.20 191.31,37.99C190.97,37.61 190.49,37.01 190.25,36.68C189.98,36.29 189.45,35.82 188.85,35.43C188.32,35.08 187.52,34.45 187.08,34.03C186.52,33.51 186.04,33.19 185.54,33.00C185.14,32.86 184.69,32.65 184.53,32.55C184.38,32.45 183.76,32.25 183.16,32.11C182.56,31.97 181.92,31.77 181.73,31.68C181.53,31.57 181.02,31.50 180.49,31.50C180.00,31.50 179.26,31.41 178.84,31.30C178.01,31.09 177.62,31.12 176.40,31.52C175.45,31.83 175.11,32.21 175.41,32.66C175.51,32.81 176.34,33.64 177.24,34.50C178.15,35.36 182.02,39.17 185.86,42.97C189.69,46.77 192.90,49.87 193.00,49.87C193.09,49.87 194.61,51.30 196.36,53.04C198.12,54.79 199.76,56.34 200.00,56.50C200.42,56.77 202.55,58.82 210.27,66.38C212.15,68.22 213.73,69.86 213.83,70.09C214.02,70.54 213.92,70.94 213.45,71.56C213.29,71.77 212.87,72.42 212.50,73.00C212.14,73.58 211.52,74.40 211.13,74.81C210.75,75.22 210.29,75.76 210.13,76.00C209.71,76.64 205.79,80.58 205.12,81.03C204.82,81.25 204.22,81.74 203.81,82.14C203.40,82.53 202.60,83.13 202.04,83.47C201.48,83.81 200.81,84.26 200.54,84.46C199.76,85.07 198.64,85.75 197.97,86.01C197.62,86.15 197.18,86.37 197.00,86.50C196.82,86.63 196.37,86.86 196.00,87.00C195.63,87.14 195.19,87.36 195.01,87.49C194.62,87.76 194.01,87.95 193.21,88.05C192.83,88.10 192.33,88.29 191.88,88.57C191.33,88.91 190.94,89.05 190.29,89.13C189.73,89.20 189.17,89.37 188.70,89.62C188.30,89.83 187.79,90.00 187.56,90.00C187.33,90.00 186.48,90.20 185.66,90.45C184.60,90.78 183.79,90.93 182.75,91.02C181.96,91.08 180.95,91.19 180.50,91.27C180.05,91.34 179.35,91.44 178.94,91.50C178.53,91.55 178.05,91.63 177.88,91.68C177.37,91.81 176.10,91.83 175.50,91.72ZM175.81,75.63C175.68,75.57 174.69,75.52 173.62,75.51C172.14,75.51 171.44,75.45 170.62,75.26C170.04,75.12 169.17,74.91 168.69,74.80C168.21,74.68 167.50,74.55 167.12,74.50C166.33,74.39 165.12,73.93 164.42,73.45C164.16,73.27 163.71,73.06 163.44,72.99C163.05,72.88 162.55,72.46 161.13,71.08C160.13,70.10 159.10,69.17 158.84,69.01C158.58,68.86 158.19,68.47 157.97,68.14C157.75,67.82 157.23,67.19 156.82,66.73C155.10,64.84 154.49,64.06 154.19,63.39C154.01,63.00 153.78,62.52 153.66,62.31C153.55,62.11 153.32,61.66 153.16,61.31C153.00,60.97 152.78,60.52 152.67,60.31C151.83,58.76 151.25,57.49 151.25,57.20C151.25,57.05 151.14,56.50 151.00,55.99C150.87,55.48 150.75,54.85 150.75,54.60C150.75,54.34 150.64,53.86 150.51,53.53C150.31,53.03 150.27,52.53 150.23,50.68C150.21,49.45 150.24,48.37 150.29,48.28C150.48,47.99 150.98,48.12 151.59,48.64C151.92,48.92 152.24,49.22 152.31,49.30C152.38,49.38 152.75,49.68 153.12,49.96C153.50,50.24 153.93,50.59 154.06,50.75C154.20,50.90 154.57,51.20 154.88,51.41C155.18,51.62 155.72,52.05 156.07,52.36C156.42,52.68 156.92,53.10 157.17,53.29C157.71,53.70 158.66,55.12 159.02,56.05C159.16,56.40 159.60,57.17 160.00,57.75C160.40,58.33 161.08,59.38 161.52,60.06C162.76,62.05 166.74,66.00 167.49,66.00C167.60,66.00 168.05,66.23 168.50,66.50C168.95,66.77 169.40,67.00 169.50,67.00C169.60,67.00 170.05,67.23 170.50,67.50C171.15,67.90 171.43,68.00 171.91,68.00C172.25,68.00 172.79,68.12 173.12,68.26C173.64,68.48 173.90,68.51 175.20,68.46C176.95,68.40 178.63,68.20 178.98,68.01C179.12,67.94 179.27,67.75 179.32,67.60C179.40,67.36 179.26,67.17 178.42,66.40C177.88,65.90 177.16,65.27 176.81,65.00C176.47,64.74 174.78,63.11 173.06,61.38C171.34,59.65 169.77,58.15 169.56,58.04C169.13,57.82 165.82,54.61 156.15,45.03C152.31,41.23 149.10,38.12 149.00,38.12C148.91,38.12 147.22,36.52 145.25,34.56C143.28,32.60 141.60,31.00 141.52,31.00C141.43,31.00 141.09,30.74 140.74,30.42C139.85,29.58 139.87,29.25 140.93,28.10C141.49,27.50 141.82,27.01 142.00,26.52C142.21,25.96 142.51,25.56 143.42,24.62C144.06,23.97 144.76,23.18 144.97,22.88C145.42,22.22 148.36,19.30 149.00,18.87C149.24,18.71 149.78,18.25 150.19,17.86C150.60,17.47 151.40,16.87 151.96,16.53C152.52,16.19 153.19,15.74 153.46,15.54C154.24,14.93 155.36,14.25 156.03,13.99C156.38,13.85 156.82,13.63 157.00,13.50C157.18,13.37 157.63,13.14 158.00,13.00C158.37,12.86 158.82,12.63 159.00,12.50C159.18,12.37 159.63,12.14 160.00,12.00C160.37,11.86 160.81,11.63 160.99,11.50C161.18,11.37 161.73,11.21 162.24,11.14C162.89,11.05 163.34,10.90 163.76,10.64C164.17,10.39 164.67,10.22 165.28,10.12C165.78,10.04 166.51,9.93 166.89,9.87C167.28,9.81 167.79,9.64 168.02,9.51C168.26,9.37 168.81,9.20 169.25,9.13C169.70,9.06 170.54,8.91 171.12,8.81C171.71,8.71 172.60,8.57 173.10,8.51C173.60,8.44 174.07,8.35 174.15,8.30C174.23,8.25 174.78,8.19 175.37,8.18C175.96,8.16 177.14,8.11 178.00,8.06C179.30,7.98 179.70,8.01 180.38,8.19C180.82,8.31 181.58,8.45 182.06,8.51C182.54,8.56 183.09,8.66 183.28,8.74C183.48,8.81 184.01,8.93 184.47,9.00C184.93,9.07 185.73,9.27 186.25,9.44C186.77,9.61 187.58,9.83 188.06,9.94C188.54,10.05 189.24,10.33 189.62,10.56C190.03,10.80 190.64,11.03 191.12,11.12C191.56,11.21 192.25,11.44 192.65,11.64C193.04,11.84 193.44,12.00 193.53,12.00C193.62,12.00 194.01,12.20 194.38,12.44C194.76,12.68 195.27,12.93 195.53,13.00C195.80,13.08 196.36,13.45 196.82,13.87C197.35,14.33 197.84,14.65 198.18,14.75C198.67,14.89 200.08,15.83 200.88,16.56C201.05,16.72 201.44,16.96 201.75,17.10C202.16,17.28 203.17,18.21 205.54,20.59C208.20,23.26 208.91,24.05 209.54,25.04C209.97,25.69 210.64,26.72 211.04,27.31C211.44,27.90 211.84,28.61 211.94,28.89C212.04,29.16 212.32,29.62 212.56,29.91C212.80,30.19 213.00,30.49 213.00,30.58C213.00,30.66 213.24,31.09 213.54,31.52C213.83,31.96 214.18,32.59 214.31,32.94C214.44,33.28 214.61,33.67 214.70,33.81C214.79,33.95 214.94,34.41 215.05,34.83C215.16,35.25 215.38,35.84 215.55,36.14C215.72,36.44 215.94,37.17 216.05,37.76C216.16,38.35 216.39,39.25 216.57,39.76C216.78,40.38 216.93,41.18 217.01,42.18C217.08,43.01 217.19,44.02 217.26,44.43C217.33,44.85 217.43,45.81 217.48,46.57C217.54,47.33 217.63,48.03 217.68,48.11C217.81,48.33 217.81,51.68 217.67,51.89C217.62,51.99 217.53,52.91 217.48,53.94C217.43,54.97 217.34,56.15 217.26,56.57C217.19,56.98 217.08,57.99 217.01,58.82C216.95,59.64 216.80,60.56 216.69,60.86C216.59,61.16 216.50,61.63 216.50,61.91C216.50,62.46 216.05,64.22 215.85,64.47C215.78,64.55 215.63,64.62 215.51,64.62C215.21,64.62 209.28,58.63 209.18,58.23C209.14,58.04 209.19,57.59 209.30,57.21C209.41,56.83 209.50,56.07 209.50,55.52C209.50,54.97 209.56,54.36 209.64,54.16C209.87,53.60 209.90,49.39 209.69,48.12C209.59,47.54 209.45,46.67 209.39,46.19C208.98,43.32 208.82,42.45 208.50,41.44C208.30,40.82 208.07,39.92 208.00,39.44C207.91,38.90 207.73,38.35 207.52,38.00C207.33,37.69 207.07,37.19 206.95,36.88C206.83,36.58 206.63,36.18 206.50,36.01C206.26,35.66 206.07,35.02 205.94,34.11C205.88,33.68 205.66,33.22 205.09,32.38C204.66,31.75 203.97,30.71 203.56,30.08C202.21,28.00 201.66,27.33 199.97,25.69C197.60,23.40 196.22,22.22 195.06,21.52C194.51,21.19 193.76,20.71 193.39,20.46C193.03,20.21 192.63,20.00 192.51,20.00C192.39,20.00 192.02,19.82 191.68,19.61C190.93,19.13 189.42,18.50 189.02,18.50C188.86,18.50 188.19,18.28 187.51,18.00C186.84,17.73 186.13,17.50 185.92,17.50C185.71,17.50 185.26,17.41 184.93,17.31C182.69,16.60 174.82,16.70 173.12,17.46C172.71,17.64 172.01,17.81 171.38,17.88C169.87,18.05 169.62,18.11 169.12,18.43C168.60,18.77 168.03,18.95 167.19,19.05C166.85,19.09 166.36,19.27 166.10,19.44C165.84,19.61 165.36,19.81 165.03,19.89C164.71,19.96 164.23,20.13 163.97,20.26C163.71,20.39 163.28,20.61 163.00,20.75C162.72,20.89 162.26,21.12 161.97,21.27C161.68,21.42 161.14,21.69 160.78,21.88C160.42,22.06 160.00,22.32 159.84,22.46C159.69,22.61 159.31,22.85 159.00,23.00C158.69,23.16 158.27,23.42 158.06,23.59C157.86,23.76 157.51,24.02 157.29,24.17C155.56,25.34 153.84,26.95 153.04,28.12C152.83,28.43 152.54,28.79 152.39,28.93C151.85,29.41 152.01,29.71 153.73,31.41C154.61,32.29 155.41,33.00 155.51,33.00C155.61,33.00 161.96,39.26 169.62,46.92C177.29,54.58 183.69,60.93 183.85,61.03C184.01,61.14 186.22,63.29 188.76,65.81C193.79,70.81 193.74,70.74 193.03,71.40C192.65,71.75 192.13,71.94 191.19,72.05C190.85,72.09 190.36,72.27 190.10,72.44C189.84,72.61 189.33,72.87 188.98,73.01C188.62,73.15 188.19,73.37 188.01,73.50C187.82,73.62 187.26,73.79 186.74,73.87C186.23,73.95 185.49,74.07 185.11,74.13C184.72,74.19 184.21,74.36 183.97,74.50C183.74,74.63 183.27,74.78 182.93,74.83C182.59,74.87 182.02,74.98 181.66,75.08C181.25,75.20 180.80,75.24 180.46,75.18C180.15,75.14 179.68,75.17 179.37,75.26C178.84,75.40 177.88,75.55 176.62,75.69C176.32,75.72 175.95,75.69 175.81,75.63Z"/></g><g transform="translate(38.463 -86.720)"><path fill="#ffffff" fill-rule="evenodd" d="M71.62,153.86C71.32,153.80 70.81,153.77 70.50,153.81C70.19,153.84 69.60,153.79 69.19,153.69C68.78,153.59 68.24,153.51 68.00,153.50C67.76,153.50 67.17,153.39 66.69,153.25C66.21,153.11 65.50,153.00 65.13,153.00C64.71,153.00 64.22,152.90 63.89,152.75C63.59,152.61 63.22,152.50 63.05,152.50C62.89,152.50 62.49,152.39 62.16,152.26C61.83,152.14 61.23,151.96 60.81,151.88C60.40,151.79 59.84,151.61 59.57,151.47C58.67,151.02 57.32,150.50 57.00,150.49C56.83,150.49 56.24,150.31 55.69,150.09C54.24,149.51 54.20,149.37 54.93,147.70C55.24,146.98 55.50,146.24 55.50,146.06C55.50,145.65 55.69,145.29 56.15,144.84C56.38,144.60 56.50,144.35 56.50,144.11C56.50,143.65 56.68,143.30 57.15,142.84C57.38,142.60 57.50,142.35 57.50,142.11C57.50,141.65 57.68,141.30 58.15,140.84C58.38,140.60 58.50,140.35 58.50,140.11C58.50,139.71 58.81,139.00 58.99,139.00C59.05,139.00 59.31,138.69 59.56,138.31C60.11,137.48 60.38,137.44 61.12,138.06C61.46,138.34 61.78,138.50 62.01,138.50C62.22,138.50 62.53,138.64 62.78,138.86C63.32,139.32 63.66,139.50 64.05,139.50C64.22,139.50 64.55,139.66 64.78,139.86C65.29,140.31 65.66,140.50 65.99,140.50C66.14,140.50 66.74,140.71 67.35,140.96C68.20,141.32 68.68,141.44 69.56,141.51C70.18,141.55 71.10,141.67 71.59,141.76C72.95,142.00 74.00,141.81 74.99,141.14C75.77,140.60 76.12,140.12 76.12,139.57C76.12,139.09 75.34,138.30 74.58,138.02C74.22,137.88 73.70,137.66 73.43,137.52C73.16,137.38 72.57,137.20 72.12,137.12C71.68,137.03 70.97,136.88 70.56,136.78C70.15,136.67 69.45,136.55 69.00,136.49C67.90,136.36 66.19,135.91 65.50,135.56C65.19,135.40 64.49,135.17 63.95,135.06C63.02,134.85 62.92,134.80 62.02,133.97C61.49,133.49 60.86,133.00 60.62,132.87C59.99,132.55 58.35,130.70 57.91,129.81C57.71,129.40 57.45,128.89 57.34,128.68C57.02,128.09 56.71,125.94 56.81,125.00C56.86,124.55 56.94,123.51 56.98,122.68C57.06,121.27 57.09,121.14 57.47,120.55C57.69,120.21 57.95,119.69 58.05,119.40C58.15,119.12 58.38,118.67 58.56,118.41C58.73,118.16 58.96,117.69 59.06,117.37C59.32,116.59 61.66,114.28 63.00,113.50C63.52,113.19 64.18,112.76 64.47,112.54C64.79,112.29 65.27,112.09 65.72,112.00C66.11,111.92 66.69,111.69 67.00,111.50C68.35,110.65 71.99,109.85 74.69,109.81C75.31,109.80 75.97,109.72 76.16,109.64C76.69,109.43 79.21,109.46 80.13,109.70C80.62,109.82 81.11,109.87 81.44,109.82C82.02,109.73 83.95,110.01 84.87,110.32C85.17,110.42 85.63,110.50 85.88,110.50C86.14,110.50 86.59,110.61 86.89,110.75C87.19,110.88 87.69,111.00 88.00,111.00C88.31,111.00 88.81,111.12 89.11,111.25C89.41,111.39 89.78,111.50 89.94,111.50C90.34,111.50 91.81,112.07 92.62,112.55C93.00,112.77 93.48,113.03 93.69,113.13C93.92,113.25 94.08,113.44 94.11,113.62C94.17,114.06 93.91,114.85 93.49,115.51C93.29,115.82 93.05,116.30 92.95,116.59C92.85,116.87 92.63,117.32 92.45,117.58C92.28,117.85 92.05,118.30 91.95,118.58C91.85,118.87 91.63,119.32 91.45,119.58C91.28,119.85 91.05,120.30 90.95,120.59C90.85,120.88 90.62,121.33 90.44,121.59C90.27,121.84 90.04,122.33 89.92,122.67C89.73,123.26 88.82,124.38 88.53,124.38C88.46,124.38 88.16,124.18 87.88,123.94C87.54,123.66 87.22,123.50 86.99,123.50C86.78,123.50 86.47,123.36 86.22,123.14C85.70,122.69 85.34,122.50 85.00,122.50C84.85,122.50 84.19,122.28 83.51,122.00C82.50,121.58 82.15,121.50 81.44,121.50C80.94,121.50 80.18,121.39 79.64,121.24C78.57,120.94 78.26,120.96 76.70,121.44C75.15,121.91 74.76,122.36 75.12,123.29C75.36,123.94 78.11,125.50 79.00,125.50C79.17,125.49 79.79,125.61 80.38,125.74C80.96,125.88 81.83,126.09 82.31,126.20C82.79,126.32 83.50,126.45 83.88,126.50C84.25,126.55 85.04,126.79 85.62,127.04C86.20,127.29 86.80,127.50 86.96,127.50C87.11,127.50 87.67,127.67 88.19,127.87C88.92,128.15 89.33,128.41 89.89,128.94C90.29,129.32 90.92,129.77 91.28,129.93C92.19,130.33 93.22,131.53 94.07,133.19C94.29,133.60 94.55,134.11 94.66,134.32C94.78,134.53 94.96,135.29 95.08,136.01C95.25,137.11 95.26,137.50 95.14,138.50C95.06,139.15 95.00,139.91 95.00,140.19C95.00,141.19 94.17,143.50 93.42,144.62C93.26,144.86 93.04,145.31 92.94,145.62C92.67,146.42 90.44,148.63 89.04,149.47C88.48,149.81 87.81,150.26 87.54,150.46C86.21,151.51 85.35,151.91 84.19,152.05C83.85,152.09 83.37,152.26 83.13,152.42C82.51,152.83 81.99,152.97 80.62,153.11C79.75,153.20 79.29,153.31 78.93,153.52C78.50,153.78 78.27,153.81 77.00,153.83C76.21,153.83 74.80,153.87 73.88,153.91C72.91,153.96 71.95,153.93 71.62,153.86ZM124.69,153.86C124.41,153.79 123.91,153.76 123.56,153.80C123.20,153.84 122.62,153.79 122.19,153.69C121.78,153.59 121.26,153.51 121.04,153.50C120.54,153.50 118.19,152.91 117.72,152.67C117.54,152.58 117.24,152.50 117.06,152.50C116.88,152.50 116.19,152.28 115.51,152.00C114.84,151.72 114.18,151.50 114.03,151.50C113.89,151.50 113.33,151.33 112.81,151.13C112.09,150.85 111.67,150.59 111.14,150.09C110.41,149.39 109.94,149.10 109.34,148.95C109.14,148.90 108.64,148.54 108.21,148.15C107.79,147.76 107.24,147.30 107.00,147.14C105.40,146.05 102.67,142.72 102.04,141.08C101.93,140.80 101.64,140.25 101.41,139.86C101.10,139.34 100.95,138.91 100.86,138.24C100.78,137.66 100.61,137.12 100.41,136.77C100.14,136.31 100.06,135.96 99.96,134.76C99.72,131.96 99.91,127.51 100.29,126.79C100.40,126.57 100.50,126.22 100.50,126.02C100.50,125.67 100.67,125.21 101.37,123.69C101.56,123.28 101.76,122.80 101.81,122.62C101.87,122.45 102.12,122.01 102.39,121.64C102.65,121.28 102.95,120.71 103.06,120.39C103.22,119.90 103.57,119.49 105.17,117.93C107.15,116.00 107.97,115.28 108.50,115.00C108.67,114.92 108.98,114.69 109.19,114.50C110.05,113.72 111.03,113.14 111.73,113.00C112.12,112.92 112.65,112.72 112.91,112.55C113.16,112.38 113.67,112.13 114.02,111.99C114.38,111.85 114.81,111.64 114.99,111.51C115.38,111.24 115.99,111.05 116.78,110.95C117.11,110.91 117.59,110.74 117.87,110.57C118.23,110.34 118.66,110.22 119.46,110.13C120.07,110.06 120.90,109.95 121.31,109.88C121.72,109.81 122.51,109.79 123.06,109.83C123.79,109.89 124.28,109.85 124.85,109.70C125.78,109.47 128.30,109.43 128.84,109.64C129.03,109.72 129.81,109.79 130.56,109.82C131.60,109.84 132.13,109.92 132.69,110.12C133.10,110.27 133.63,110.42 133.88,110.45C134.69,110.56 136.94,111.15 137.38,111.37C138.96,112.17 139.72,112.50 139.96,112.50C140.11,112.50 140.66,112.66 141.18,112.86C141.91,113.15 142.32,113.41 142.99,114.03C143.47,114.47 144.22,115.05 144.67,115.31C145.22,115.63 146.02,116.33 147.15,117.48C149.24,119.62 149.61,120.14 150.80,122.62C150.98,123.00 151.22,123.48 151.33,123.69C151.80,124.55 151.87,124.72 151.99,125.49C152.06,125.92 152.27,126.57 152.45,126.92C152.83,127.63 152.89,128.29 152.92,131.94C152.94,134.47 152.80,135.79 152.42,136.53C152.26,136.86 152.02,137.56 151.89,138.09C151.60,139.26 150.86,140.98 150.32,141.75C150.10,142.06 149.66,142.73 149.34,143.25C148.51,144.59 145.41,147.65 144.04,148.47C143.48,148.81 142.81,149.26 142.54,149.46C141.76,150.07 140.64,150.75 139.97,151.01C139.62,151.15 139.19,151.36 139.01,151.49C138.62,151.76 138.01,151.95 137.22,152.05C136.89,152.09 136.42,152.25 136.16,152.42C135.90,152.58 135.32,152.77 134.88,152.85C134.43,152.92 133.67,153.04 133.19,153.12C132.71,153.20 131.96,153.38 131.53,153.52C130.93,153.71 130.35,153.78 129.15,153.80C128.28,153.82 127.03,153.87 126.38,153.91C125.68,153.96 124.98,153.94 124.69,153.86ZM161.29,152.88C161.15,152.82 160.99,152.71 160.95,152.64C160.89,152.55 160.83,118.86 160.87,111.54C160.87,111.39 161.02,111.10 161.20,110.88L161.52,110.50L177.39,110.50C187.51,110.50 193.35,110.54 193.50,110.62C193.96,110.87 194.00,111.39 194.00,116.51C194.00,120.86 193.98,121.51 193.80,121.68C193.70,121.79 193.60,121.89 193.58,121.90C193.57,121.92 190.34,121.96 186.40,122.00L179.23,122.06L178.98,122.37C178.75,122.65 178.73,122.83 178.77,124.46C178.81,126.12 178.83,126.26 179.10,126.53L179.38,126.81L185.35,126.84C188.63,126.85 191.41,126.87 191.52,126.87C191.64,126.87 191.90,127.02 192.12,127.20L192.50,127.52L192.50,132.44L192.50,137.36L192.22,137.56C191.98,137.72 191.17,137.75 185.93,137.75C181.85,137.75 179.78,137.79 179.51,137.89C178.72,138.16 178.74,138.06 178.75,145.48C178.76,149.17 178.76,152.29 178.76,152.41C178.74,152.98 178.41,153.00 169.72,152.99C165.23,152.99 161.44,152.94 161.29,152.88ZM201.00,152.78L200.56,152.56L200.53,132.06C200.51,116.83 200.53,111.47 200.64,111.21C200.94,110.48 200.72,110.50 209.88,110.50C215.11,110.50 218.35,110.55 218.50,110.62C218.62,110.69 218.79,110.92 218.86,111.14C219.02,111.60 219.06,152.34 218.90,152.58C218.63,152.98 218.28,153.00 209.85,153.00C202.09,153.00 201.40,152.98 201.00,152.78ZM229.00,152.78L228.56,152.56L228.53,132.06C228.51,116.83 228.53,111.47 228.64,111.21C228.94,110.48 228.72,110.50 237.92,110.50L246.36,110.50L246.56,110.78C246.73,111.03 246.75,112.55 246.75,124.70C246.75,137.95 246.76,138.36 246.99,138.64L247.23,138.94L255.48,139.00C262.93,139.06 263.76,139.08 263.95,139.27C264.13,139.45 264.15,139.96 264.16,143.89C264.16,146.32 264.21,148.44 264.27,148.59C264.34,148.80 264.47,148.88 264.74,148.88C265.27,148.88 266.53,147.59 267.43,146.12C267.90,145.36 268.59,144.49 269.38,143.67C270.12,142.92 270.73,142.15 270.91,141.78C271.25,141.08 271.71,140.47 272.76,139.32C273.39,138.65 273.96,137.92 274.84,136.71C275.00,136.49 275.12,136.24 275.12,136.15C275.12,136.05 275.68,135.40 276.35,134.71C277.10,133.94 277.92,132.92 278.43,132.13C279.50,130.48 279.55,130.35 279.31,129.79C279.08,129.25 278.03,127.77 277.31,127.00C277.02,126.69 276.66,126.24 276.50,126.00C276.34,125.76 275.98,125.31 275.69,125.00C275.40,124.69 274.87,124.02 274.50,123.50C274.13,122.98 273.59,122.31 273.30,122.00C273.01,121.69 272.51,121.02 272.18,120.50C271.86,119.99 271.27,119.23 270.88,118.81C270.19,118.07 269.86,117.67 269.00,116.50C267.78,114.84 267.41,114.38 266.81,113.75C266.09,113.00 265.33,111.87 265.21,111.37C265.16,111.17 265.20,110.94 265.32,110.77L265.51,110.50L274.93,110.50C283.72,110.50 284.36,110.51 284.61,110.72C284.94,111.00 285.70,112.25 286.02,113.05C286.15,113.39 286.61,114.18 287.02,114.80C287.44,115.43 287.86,116.16 287.96,116.44C288.06,116.71 288.28,117.16 288.46,117.44C288.65,117.71 288.91,118.24 289.06,118.61C289.20,118.99 289.47,119.40 289.66,119.54L290.00,119.80L290.34,119.54C290.53,119.40 290.80,118.99 290.94,118.61C291.09,118.24 291.35,117.71 291.54,117.44C291.72,117.16 291.95,116.68 292.06,116.38C292.17,116.07 292.43,115.60 292.64,115.33C292.86,115.07 293.13,114.57 293.26,114.23C293.50,113.56 293.68,113.29 294.05,113.01C294.18,112.92 294.44,112.49 294.63,112.08C294.82,111.66 295.09,111.21 295.23,111.08C295.85,110.52 295.93,110.51 305.51,110.51C314.15,110.50 314.60,110.51 314.79,110.73C315.18,111.16 315.09,111.42 314.05,112.77C313.76,113.14 313.38,113.58 313.19,113.75C312.88,114.03 312.00,115.13 311.16,116.29C311.00,116.51 310.88,116.76 310.88,116.85C310.88,116.94 310.30,117.62 309.59,118.35C308.77,119.21 308.05,120.11 307.58,120.88C307.11,121.63 306.40,122.52 305.62,123.33C304.88,124.08 304.27,124.85 304.09,125.22C303.75,125.93 303.35,126.45 302.03,127.90C300.92,129.13 300.43,130.05 300.62,130.55C300.81,131.05 301.71,132.36 302.31,133.00C302.60,133.31 303.13,133.98 303.50,134.50C303.87,135.02 304.40,135.69 304.69,136.00C304.98,136.31 305.34,136.76 305.50,137.00C305.66,137.24 306.02,137.69 306.31,138.00C306.60,138.31 307.13,138.98 307.50,139.50C307.87,140.02 308.41,140.69 308.70,141.00C308.99,141.31 309.49,141.98 309.82,142.50C310.14,143.01 310.73,143.77 311.13,144.19C311.52,144.60 312.05,145.28 312.31,145.69C312.56,146.10 313.01,146.69 313.30,147.00C313.59,147.31 314.13,147.98 314.50,148.50C314.87,149.02 315.44,149.73 315.77,150.09C316.10,150.44 316.38,150.79 316.38,150.85C316.38,150.92 316.66,151.26 317.00,151.62C317.67,152.32 317.77,152.66 317.38,152.87C317.04,153.05 298.30,153.05 297.78,152.87C297.23,152.68 295.49,150.25 294.99,148.98C294.85,148.63 294.38,147.79 293.93,147.13C293.49,146.46 293.12,145.85 293.12,145.78C293.12,145.70 292.92,145.38 292.67,145.05C292.42,144.72 292.10,144.19 291.97,143.88C291.83,143.57 291.61,143.17 291.49,142.99C291.36,142.81 291.14,142.35 291.00,141.96C290.74,141.28 290.27,140.75 289.92,140.75C289.83,140.75 289.44,141.40 289.06,142.20C288.61,143.12 288.16,143.85 287.80,144.22C287.47,144.56 287.15,145.07 286.99,145.49C286.85,145.87 286.56,146.40 286.35,146.67C286.14,146.93 285.87,147.43 285.74,147.77C285.49,148.46 285.40,148.60 284.73,149.29C284.47,149.55 284.15,150.06 284.02,150.42C283.88,150.77 283.57,151.40 283.32,151.81C283.08,152.21 282.88,152.58 282.88,152.63C282.88,152.99 281.88,153.00 255.84,153.00C230.95,153.00 229.41,152.99 229.00,152.78ZM127.50,139.50C127.85,139.36 128.34,139.25 128.60,139.25C129.40,139.24 130.16,139.00 131.06,138.47C132.27,137.76 132.71,137.32 133.01,136.51C133.15,136.12 133.43,135.60 133.64,135.34C134.16,134.68 134.39,134.08 134.53,133.00C134.59,132.48 134.67,131.85 134.71,131.59C134.76,131.26 134.70,130.93 134.51,130.50C134.37,130.17 134.25,129.64 134.25,129.33C134.25,129.02 134.20,128.63 134.14,128.47C133.99,128.10 132.52,126.12 132.38,126.12C132.32,126.12 131.84,125.73 131.30,125.24C130.77,124.76 130.19,124.29 130.01,124.20C129.37,123.87 126.57,123.74 124.39,123.94C123.29,124.03 123.16,124.08 122.45,124.56C122.03,124.84 121.32,125.29 120.88,125.56C119.73,126.24 119.29,126.70 119.00,127.47C118.86,127.83 118.67,128.26 118.57,128.41C118.06,129.19 117.88,131.26 118.12,133.56C118.24,134.63 118.27,134.72 118.93,135.70C119.71,136.83 121.49,138.62 122.06,138.83C122.72,139.08 124.62,139.50 125.10,139.51C125.35,139.51 125.67,139.57 125.81,139.62C126.23,139.81 126.84,139.76 127.50,139.50ZM208.50,104.82C208.19,104.73 207.54,104.46 207.06,104.21C206.36,103.85 206.07,103.60 205.60,102.97C204.78,101.87 204.58,100.82 204.89,99.37C205.15,98.16 207.03,96.54 208.60,96.17C209.94,95.86 211.49,96.02 212.44,96.57C213.02,96.91 214.69,98.70 214.87,99.19C215.04,99.62 215.04,101.39 214.87,101.84C214.68,102.35 213.44,103.57 212.50,104.18C211.78,104.65 211.55,104.73 210.55,104.85C209.23,105.02 209.23,105.02 208.50,104.82Z"/></g></svg>